HIERARCHY
ROOT Hips
{
  OFFSET 7.333 -26.027 -164.856
  CHANNELS 6 Xposition Yposition Zposition Zrotation Xrotation Yrotation
  JOINT LeftUpLeg
  {
    OFFSET 10.092 0.000 0.000
    CHANNELS 3 Zrotation Xrotation Yrotation
    JOINT LeftLeg
    {
      OFFSET 0.000 -38.160 -0.000
    CHANNELS 3 Zrotation Xrotation Yrotation
      JOINT LeftFoot
      {
        OFFSET -0.000 -24.040 0.000
    CHANNELS 3 Zrotation Xrotation Yrotation
        End Site
        {
          OFFSET -0.000 0.000 12.945
        }
      }
    }
  }
  JOINT RightUpLeg
  {
    OFFSET -10.092 -0.000 0.000
    CHANNELS 3 Zrotation Xrotation Yrotation
    JOINT RightLeg
    {
      OFFSET 0.000 -33.046 0.000
    CHANNELS 3 Zrotation Xrotation Yrotation
      JOINT RightFoot
      {
        OFFSET 0.000 -22.031 -0.000
    CHANNELS 3 Zrotation Xrotation Yrotation
        End Site
        {
          OFFSET 0.000 -0.000 11.863
        }
      }
    }
  }
  JOINT Spine
  {
    OFFSET -0.000 16.511 0.000
    CHANNELS 3 Zrotation Xrotation Yrotation
    JOINT LeftShoulder
    {
      OFFSET 0 16.511 0
    CHANNELS 3 Zrotation Xrotation Yrotation
      JOINT LeftArm
      {
        OFFSET 16.337 0.000 0.000
    CHANNELS 3 Zrotation Xrotation Yrotation
        JOINT LeftForeArm
        {
          OFFSET 0.000 -24.030 0.000
    CHANNELS 3 Zrotation Xrotation Yrotation
          JOINT LeftHand
          {
            OFFSET 0.000 -17.629 -0.000
    CHANNELS 3 Zrotation Xrotation Yrotation
            End Site
            {
              OFFSET 0.000 -11.753 -0.000
            }
          }
        }
      }
    }
    JOINT RightShoulder
    {
      OFFSET 0 16.511 0
    CHANNELS 3 Zrotation Xrotation Yrotation
      JOINT RightArm
      {
        OFFSET -16.337 0.000 0.000
    CHANNELS 3 Zrotation Xrotation Yrotation
        JOINT RightForeArm
        {
          OFFSET -0.000 -19.534 0.000
    CHANNELS 3 Zrotation Xrotation Yrotation
          JOINT RightHand
          {
            OFFSET 0.000 -19.514 -0.000
    CHANNELS 3 Zrotation Xrotation Yrotation
            End Site
            {
              OFFSET 0.000 -13.010 -0.000
            }
          }
        }
      }
    }
    JOINT Neck
    {
      OFFSET -0.000 16.511 0.000
    CHANNELS 3 Zrotation Xrotation Yrotation
      JOINT Head
      {
        OFFSET -0.000 12.493 -0.000
    CHANNELS 3 Zrotation Xrotation Yrotation
        End Site
        {
          OFFSET -0.000 8.328 -0.000
        }
      }
    }
  }
}
MOTION
Frames: 18
Frame Time: 0.0333333
0 0 0 -1.721524e-01 -4.789015e-01 1.477796e+00 -1.161226e-01 4.186395e+00 8.712620e-03 -3.453148e+00 1.101378e+01 5.431205e-01 0 -5.987781e-09 0 2.109181e+00 1.027041e+01 -3.757770e-01 8.837417e-01 -1.425547e+01 7.289042e-01 0 0 0 2.507913e-07 0 9.286586e-05 0 0 0 -3.821862e-01 -5.278970e+01 -8.984925e+01 1.043200e+02 -2.818700e+01 1.086155e+02 NaN 1.639526e-07 NaN 0 0 0 2.627104e+00 -4.992282e+01 9.365296e+01 -1.062760e+02 -2.593546e+01 -1.319263e+02 1.286591e-07 -9.673742e-08 -1.547672e-08 -3.465490e-01 -1.756791e-01 -1.049000e-03 0 0 NaN 
0 0 0 -8.081350e-01 -2.654413e-01 2.377007e+00 1.373150e+00 3.765642e+00 -9.020900e-02 -3.496143e+00 9.567760e+00 5.016822e-01 0 -3.637248e-09 0 3.350539e+00 1.055443e+01 -6.143401e-01 4.109476e-01 -1.566030e+01 1.001160e+00 0 0 0 NaN 0 -1.139941e-05 0 0 0 9.547453e+00 -5.342558e+01 -7.644625e+01 1.065558e+02 -2.633105e+01 1.135466e+02 -6.000920e-07 -8.092941e-08 NaN 0 0 0 -5.280591e+00 -5.176884e+01 8.420990e+01 -1.071367e+02 -1.903532e+01 -1.411557e+02 1.231831e-07 1.236865e-07 -8.704215e-09 -4.711760e-01 7.056661e-01 5.773593e-03 0 0 1.773431e-08 
0 0 0 2.908500e-02 -5.053092e-01 9.943500e-01 1.206140e-01 3.968673e+00 -8.240000e-03 -3.635750e+00 1.028919e+01 8.557047e-01 0 2.152583e-08 0 1.910260e+00 1.063892e+01 -3.530405e-01 6.883247e-01 -1.574761e+01 6.973123e-01 0 0 0 NaN 0 -2.783439e-05 0 0 0 2.323483e+01 -4.796398e+01 -5.660724e+01 1.097513e+02 -2.160459e+01 1.230871e+02 NaN -6.506436e-08 4.405092e-08 0 0 0 -1.933893e+01 -4.982310e+01 6.780537e+01 -1.099008e+02 -1.290154e+01 -1.559866e+02 NaN -1.199931e-07 -2.165050e-08 -6.634748e-04 1.009843e+00 2.033702e-05 0 0 2.490125e-08 
0 0 0 2.034500e-02 -6.668366e-01 4.322500e-01 -3.656710e-01 4.678424e+00 2.979537e-02 -3.776535e+00 8.713327e+00 6.554820e-01 0 -1.577159e-07 0 1.383770e+00 1.019873e+01 -2.450871e-01 1.291256e+00 -1.482890e+01 6.796790e-01 0 0 0 8.363489e-07 0 3.164615e-06 0 0 0 3.613108e+01 -4.226413e+01 -3.784864e+01 1.068196e+02 -1.624468e+01 1.231711e+02 NaN -8.046031e-08 1.275562e-07 0 0 0 -3.207640e+01 -4.087736e+01 5.067520e+01 -1.141977e+02 -4.327212e+00 -1.760987e+02 7.428875e-08 NaN 1.056266e-09 -1.513890e-01 7.723112e-01 2.038304e-03 0 0 2.664807e-08 
0 0 0 -3.986532e-02 -1.584362e+00 1.738703e-01 -5.429573e-01 6.719159e+00 6.358464e-02 -3.411874e+00 7.096835e+00 5.463088e-01 0 NaN 0 1.174197e+00 1.219952e+01 -2.484215e-01 1.572080e+00 -1.616823e+01 7.584567e-01 0 0 0 2.471131e-07 0 -2.291570e-06 0 0 0 4.363547e+01 -3.169486e+01 -2.258367e+01 1.034481e+02 -1.259715e+01 1.210737e+02 -2.957078e-09 2.347952e-07 1.019649e-07 0 0 0 -3.950917e+01 -3.045374e+01 3.776066e+01 -1.138710e+02 4.582942e+00 1.579358e+02 3.328608e-07 -6.303694e-08 -1.985404e-09 1.570580e-01 5.045785e-01 -1.373525e-03 0 0 9.477424e-09 
0 0 0 -2.935315e-01 -1.927236e+00 -3.094431e-02 -5.151720e-01 6.525290e+00 5.859414e-02 -3.507912e+00 1.069322e+01 4.552428e-01 0 NaN 0 1.504619e+00 1.394549e+01 -3.620096e-01 1.641437e+00 -1.770402e+01 9.436201e-01 0 0 0 NaN 0 -5.802193e-05 0 0 0 4.525859e+01 -2.040113e+01 -1.159978e+01 1.005076e+02 -1.243852e+01 1.156765e+02 -5.397068e-07 -7.009498e-08 1.108896e-07 0 0 0 -4.015166e+01 -2.010165e+01 2.987964e+01 -1.093620e+02 1.223193e+01 1.419728e+02 NaN 1.859712e-07 -5.860932e-07 -1.543918e-01 4.817231e-01 1.266405e-03 0 0 9.100080e-09 
0 0 0 -5.842105e-01 -6.592131e-01 -2.157687e-01 2.825269e-01 4.759790e+00 -2.336083e-02 -3.644835e+00 1.130130e+01 6.422523e-01 0 -7.788837e-10 0 1.264131e+00 1.169295e+01 -2.564453e-01 5.020092e+00 -1.673222e+01 1.809613e+00 0 0 0 1.724855e-07 0 2.700000e-05 0 0 0 4.542305e+01 -1.180023e+01 -3.274971e+00 9.385936e+01 -1.226313e+01 9.896120e+01 NaN 1.250678e-08 7.788002e-08 0 0 0 -3.906510e+01 -1.054692e+01 2.180197e+01 -1.056345e+02 1.209844e+01 1.314931e+02 NaN -1.176829e-07 NaN -2.126880e-01 8.831803e-01 3.276222e-03 0 0 1.985431e-08 
0 0 0 1.295573e-02 -4.023720e-01 -1.526987e-01 -6.266760e-01 5.457410e+00 5.960400e-02 -3.737483e+00 8.263939e+00 4.384589e-01 0 -1.812611e-08 0 6.078845e-01 1.089820e+01 -1.165592e-01 4.508920e+00 -1.543321e+01 1.361220e+00 0 0 0 1.167064e-07 0 6.600000e-05 0 0 0 4.289599e+01 -6.478336e+00 1.761858e+00 8.893490e+01 -1.301711e+01 8.515406e+01 NaN -1.090669e-07 4.166623e-08 0 0 0 -3.865892e+01 -5.758996e+00 1.677753e+01 -1.032907e+02 9.256456e+00 1.322852e+02 8.950014e-08 NaN NaN -1.730460e-01 8.875527e-01 2.623749e-03 0 0 2.240877e-08 
0 0 0 2.166980e-01 -6.425625e-01 5.866002e-01 -1.028930e+00 5.349054e+00 9.593600e-02 -3.017280e+00 9.837690e+00 6.591440e-01 0 -5.384855e-09 0 9.525770e-01 1.047414e+01 -1.731820e-01 2.219940e+00 -1.377548e+01 7.522790e-01 0 0 0 NaN 0 6.889431e-05 0 0 0 4.002761e+01 -5.888006e+00 2.245460e+00 8.843550e+01 -1.382903e+01 8.400610e+01 6.337483e-09 -1.343901e-07 1.088975e-07 0 0 0 -3.810416e+01 -3.796280e+00 1.464695e+01 -1.025450e+02 8.457132e+00 1.332198e+02 1.188786e-07 4.317454e-10 -2.123761e-07 -5.543837e-02 5.739635e-01 5.128838e-04 0 0 NaN 
0 0 0 4.769270e-01 -6.283525e-01 1.232143e+00 -1.201350e+00 5.696104e+00 1.191454e-01 -3.418502e+00 8.965430e+00 6.650903e-01 0 -6.970226e-09 0 9.241924e-01 1.102002e+01 -1.769844e-01 1.273120e+00 -1.430550e+01 5.389510e-01 0 0 0 6.896431e-08 0 9.700000e-05 0 0 0 3.636092e+01 -6.637245e+00 9.989877e-01 9.260724e+01 -1.535264e+01 9.561729e+01 -1.438111e-08 NaN 6.705953e-08 0 0 0 -3.902511e+01 -5.313072e+00 1.598985e+01 -1.033826e+02 1.031136e+01 1.315552e+02 NaN -6.531855e-07 NaN 1.069720e-01 8.964315e-01 -1.668884e-03 0 0 2.127272e-08 
0 0 0 4.614065e-01 -5.721047e-01 1.663973e+00 -8.716588e-01 3.756536e+00 5.698400e-02 -3.419214e+00 1.319373e+01 1.242662e+00 0 -5.331602e-09 0 8.541550e-01 1.011289e+01 -1.497067e-01 1.257090e+00 -1.299454e+01 4.711530e-01 0 0 0 -2.567111e-07 0 -7.300000e-05 0 0 0 3.681126e+01 -1.104415e+01 -4.702691e+00 9.499819e+01 -1.101291e+01 1.035371e+02 -9.217258e-09 1.051816e-08 NaN 0 0 0 -4.042463e+01 -8.805007e+00 1.904885e+01 -1.048958e+02 1.147499e+01 1.331613e+02 3.603674e-07 NaN NaN 1.795630e-01 7.298410e-01 -2.281536e-03 0 0 1.727149e-08 
0 0 0 3.450160e-01 -5.459942e-01 1.603609e+00 -6.719235e-01 3.552900e+00 4.162500e-02 -3.580179e+00 1.301950e+01 1.172870e+00 0 -1.318106e-08 0 1.516436e+00 9.465647e+00 -2.497516e-01 1.555217e-01 -1.199831e+01 3.423590e-01 0 0 0 NaN 0 5.100000e-05 0 0 0 3.734797e+01 -1.568830e+01 -1.045452e+01 9.846460e+01 -8.223837e+00 1.167300e+02 6.475462e-11 -2.612937e-08 2.720450e-07 0 0 0 -3.943348e+01 -1.394790e+01 2.477274e+01 -1.083186e+02 1.237983e+01 1.383134e+02 NaN NaN 4.723426e-07 2.478570e-01 5.532594e-01 -2.355266e-03 0 0 3.308722e-23 
0 0 0 2.145820e-01 -9.413707e-01 1.531925e+00 -1.870714e-01 5.389150e+00 1.752805e-02 -3.679998e+00 9.368110e+00 8.581730e-01 0 -5.491819e-09 0 1.455280e+00 1.048380e+01 -2.649289e-01 1.210106e+00 -1.316270e+01 6.020160e-01 0 0 0 NaN 0 -6.100000e-05 0 0 0 3.789514e+01 -2.317970e+01 -1.890054e+01 1.021120e+02 -4.329430e+00 1.351926e+02 3.265863e-07 -5.664321e-08 NaN 0 0 0 -3.982559e+01 -1.977067e+01 2.955993e+01 -1.102166e+02 9.835828e+00 1.467948e+02 NaN 6.096910e-07 NaN -2.674810e-01 6.466420e-01 2.986488e-03 0 0 2.235578e-08 
0 0 0 -1.739017e-02 -1.407782e+00 1.030110e+00 -3.316092e-01 5.404050e+00 3.147624e-02 -3.779732e+00 1.093203e+01 9.077600e-01 0 -1.062113e-08 0 1.494269e+00 1.183604e+01 -3.069302e-01 1.350240e+00 -1.489256e+01 7.239220e-01 0 0 0 3.379089e-08 0 7.800000e-05 0 0 0 3.845748e+01 -3.067733e+01 -2.607382e+01 1.064636e+02 -5.622390e+00 1.419484e+02 NaN -8.322864e-08 NaN 0 0 0 -3.868699e+01 -2.854881e+01 3.718299e+01 -1.116073e+02 6.801030e+00 1.555410e+02 -1.340667e-07 NaN NaN -8.168054e-02 3.490157e-01 4.969934e-04 0 0 2.881479e-08 
0 0 0 -1.447524e-02 -1.619538e+00 5.998751e-01 -6.107520e-01 5.894775e+00 6.257727e-02 -3.084002e+00 1.008104e+01 7.074720e-01 0 5.429805e-09 0 1.373711e+00 1.145703e+01 -2.742620e-01 1.293226e+00 -1.408647e+01 6.436623e-01 0 0 0 1.797845e-07 0 3.811955e-05 0 0 0 3.642109e+01 -3.804822e+01 -3.448817e+01 1.078478e+02 -9.101890e+00 1.369720e+02 NaN -6.422276e-08 5.441265e-08 0 0 0 -3.722964e+01 -3.892288e+01 4.457206e+01 -1.109461e+02 1.671939e+00 1.667452e+02 NaN NaN 5.265042e-10 5.239697e-02 2.917208e-01 -2.772980e-04 0 0 NaN 
0 0 0 -1.690625e-01 -2.237696e+00 4.617661e-01 -5.375804e-01 7.826848e+00 7.289297e-02 -3.177775e+00 6.456290e+00 4.443613e-01 0 -2.640167e-09 0 1.338218e+00 1.326970e+01 -3.069580e-01 1.340093e+00 -1.629980e+01 7.444637e-01 0 0 0 NaN 0 4.100000e-05 0 0 0 3.176186e+01 -4.294640e+01 -4.342399e+01 1.105521e+02 -1.582990e+01 1.310530e+02 4.230358e-09 -3.035867e-07 1.264567e-07 0 0 0 -3.153064e+01 -4.497930e+01 5.325682e+01 -1.110168e+02 -8.391147e+00 -1.666456e+02 NaN 9.148876e-08 1.906699e-07 -3.307400e-02 2.030604e-01 3.197700e-04 0 0 NaN 
0 0 0 -5.126090e-01 -1.965920e+00 6.562958e-01 -2.554037e-01 7.012920e+00 3.127944e-02 -3.465773e+00 8.585690e+00 5.968670e-01 0 -1.344531e-08 0 1.749575e+00 1.192040e+01 -3.599850e-01 1.221363e+00 -1.390798e+01 7.080296e-01 0 0 0 3.524819e-07 0 -2.999897e-05 0 0 0 2.445028e+01 -4.830022e+01 -5.540770e+01 1.114902e+02 -2.190622e+01 1.258059e+02 7.246800e-09 NaN NaN 0 0 0 -1.863244e+01 -5.183233e+01 6.910887e+01 -1.091015e+02 -1.409722e+01 -1.539431e+02 1.100200e-07 -6.806143e-08 NaN -3.327010e-01 1.948241e-01 1.191072e-03 0 0 2.609242e-08 
0 0 0 -1.009610e+00 -2.024023e+00 3.540004e+00 1.307852e+00 5.487760e+00 -1.250845e-01 -3.261088e+00 1.122560e+01 5.287129e-01 0 -4.066381e-07 0 3.770057e+00 1.255080e+01 -8.158263e-01 -4.848615e-01 -1.549430e+01 8.480615e-01 0 0 0 NaN 0 -8.685743e-05 0 0 0 1.018922e+01 -5.546662e+01 -7.584322e+01 1.066885e+02 -2.632145e+01 1.135260e+02 -6.716057e-07 NaN 4.447659e-08 0 0 0 -6.853348e+00 -5.431380e+01 8.239317e+01 -1.056921e+02 -1.727779e+01 -1.403550e+02 3.337286e-07 -3.697565e-07 NaN -5.929308e-01 -8.815278e-02 -8.215060e-04 0 0 1.651745e-08 
